ffmpeg started on 2025-06-06 at 20:27:51
Report written to "D:\Convert\FFMetrics\reports\psnr_report-6.txt"
Log level: 32
Command line:
ffmpeg -hide_banner -nostdin -i "G:\\\xc0\xed\xe8\xec\xe5\\\xce\xed\xe3\xee\xe8\xed\xe3\xe8\\!_36_\xce\xf1\xe5\xed\xfc_2024\\DreamCast\\\xd2\xe5\xf2\xf0\xe0\xe4\xfc \xe4\xf0\xf3\xe6\xe1\xfb \xcd\xe0\xf6\xf3\xec\xfd [\xd2\xc2-7]\\[DC] Natsume Yuujinchou Shichi - 01_Telegram_HEVC.mkv" -i "G:\\\xc0\xed\xe8\xec\xe5\\\xce\xed\xe3\xee\xe8\xed\xe3\xe8\\!_36_\xce\xf1\xe5\xed\xfc_2024\\DreamCast\\\xd2\xe5\xf2\xf0\xe0\xe4\xfc \xe4\xf0\xf3\xe6\xe1\xfb \xcd\xe0\xf6\xf3\xec\xfd [\xd2\xc2-7]\\[DC] Natsume Yuujinchou Shichi - 01_Telegram.mp4" -lavfi "[0:v]settb=AVTB,setpts=PTS-STARTPTS,format=pix_fmts=yuv420p10,fps=24000/1001,scale=1920:1080:flags=bicubic[main];[1:v]settb=AVTB,setpts=PTS-STARTPTS,format=pix_fmts=yuv420p,fps=24000/1001,scale=1920:1080:flags=bicubic[ref];[main][ref]psnr=eof_action=endall:stats_file='D\\:/Convert/FFMetrics/logs/psnr_logfile-6.txt'" -f null -
Input #0, matroska,webm, from 'G:\Аниме\Онгоинги\!_36_Осень_2024\DreamCast\Тетрадь дружбы Нацумэ [ТВ-7]\[DC] Natsume Yuujinchou Shichi - 01_Telegram_HEVC.mkv':
  Metadata:
    COMPATIBLE_BRANDS: isomiso2avc1mp41
    MAJOR_BRAND     : isom
    MINOR_VERSION   : 512
    ENCODER         : Lavf61.7.100
  Duration: 00:23:58.64, start: -0.021000, bitrate: 962 kb/s
  Stream #0:0: Video: hevc (Main 10), yuv420p10le(tv, bt709, progressive), 1920x1080 [SAR 1:1 DAR 16:9], 23.98 fps, 23.98 tbr, 1k tbn (default)
      Metadata:
        HANDLER_NAME    : VideoHandler
        VENDOR_ID       : [0][0][0][0]
        ENCODER         : Lavc61.19.100 libx265
        BPS             : 766427
        DURATION        : 00:23:56.559708333
        NUMBER_OF_FRAMES: 34443
        NUMBER_OF_BYTES : 137627259
        _STATISTICS_WRITING_APP: mkvpropedit v66.0.0 ('Josie') 64-bit
        _STATISTICS_WRITING_DATE_UTC: 2025-06-04 14:14:30
        _STATISTICS_TAGS: BPS DURATION NUMBER_OF_FRAMES NUMBER_OF_BYTES
  Stream #0:1: Audio: aac (LC), 48000 Hz, stereo, fltp (default)
      Metadata:
        HANDLER_NAME    : SoundHandler
        VENDOR_ID       : [0][0][0][0]
        ENCODER         : Lavc61.19.100 aac
        BPS             : 193159
        DURATION        : 00:23:58.634000000
        NUMBER_OF_FRAMES: 67437
        NUMBER_OF_BYTES : 34735754
        _STATISTICS_WRITING_APP: mkvpropedit v66.0.0 ('Josie') 64-bit
        _STATISTICS_WRITING_DATE_UTC: 2025-06-04 14:14:30
        _STATISTICS_TAGS: BPS DURATION NUMBER_OF_FRAMES NUMBER_OF_BYTES
Input #1, mov,mp4,m4a,3gp,3g2,mj2, from 'G:\Аниме\Онгоинги\!_36_Осень_2024\DreamCast\Тетрадь дружбы Нацумэ [ТВ-7]\[DC] Natsume Yuujinchou Shichi - 01_Telegram.mp4':
  Metadata:
    major_brand     : isom
    minor_version   : 512
    compatible_brands: isomiso2avc1mp41
    encoder         : Lavf61.1.100
  Duration: 00:23:58.60, start: 0.000000, bitrate: 3350 kb/s
  Stream #1:0[0x1](und): Video: h264 (High) (avc1 / 0x31637661), yuv420p(tv, bt709, progressive), 1920x1080 [SAR 1:1 DAR 16:9], 3207 kb/s, 23.98 fps, 23.98 tbr, 24k tbn (default)
      Metadata:
        handler_name    : VideoHandler
        vendor_id       : [0][0][0][0]
        encoder         : Lavc61.3.100 h264_qsv
  Stream #1:1[0x2](und): Audio: aac (HE-AACv2) (mp4a / 0x6134706D), 48000 Hz, stereo, fltp, 144 kb/s (default)
      Metadata:
        handler_name    : SoundHandler
        vendor_id       : [0][0][0][0]
Stream mapping:
  Stream #0:0 (hevc) -> settb:default
  Stream #1:0 (h264) -> settb:default
  psnr:default -> Stream #0:0 (wrapped_avframe)
  Stream #0:1 -> #0:1 (aac (native) -> pcm_s16le (native))
Output #0, null, to 'pipe:':
  Metadata:
    COMPATIBLE_BRANDS: isomiso2avc1mp41
    MAJOR_BRAND     : isom
    MINOR_VERSION   : 512
    encoder         : Lavf61.7.100
  Stream #0:0: Video: wrapped_avframe, yuv420p10le(tv, bt709, progressive), 1920x1080 [SAR 1:1 DAR 16:9], q=2-31, 200 kb/s, 23.98 fps, 23.98 tbn
      Metadata:
        encoder         : Lavc61.19.100 wrapped_avframe
  Stream #0:1: Audio: pcm_s16le, 48000 Hz, stereo, s16, 1536 kb/s (default)
      Metadata:
        HANDLER_NAME    : SoundHandler
        VENDOR_ID       : [0][0][0][0]
        _STATISTICS_TAGS: BPS DURATION NUMBER_OF_FRAMES NUMBER_OF_BYTES
        BPS             : 193159
        DURATION        : 00:23:58.634000000
        NUMBER_OF_FRAMES: 67437
        NUMBER_OF_BYTES : 34735754
        _STATISTICS_WRITING_APP: mkvpropedit v66.0.0 ('Josie') 64-bit
        _STATISTICS_WRITING_DATE_UTC: 2025-06-04 14:14:30
        encoder         : Lavc61.19.100 pcm_s16le
frame=  167 fps=0.0 q=-0.0 size=N/A time=00:00:06.96 bitrate=N/A speed=13.3x    frame=  328 fps=317 q=-0.0 size=N/A time=00:00:13.68 bitrate=N/A speed=13.2x    frame=  508 fps=328 q=-0.0 size=N/A time=00:00:21.18 bitrate=N/A speed=13.7x    frame=  723 fps=351 q=-0.0 size=N/A time=00:00:30.15 bitrate=N/A speed=14.7x    frame=  896 fps=347 q=-0.0 size=N/A time=00:00:37.37 bitrate=N/A speed=14.5x    frame= 1134 fps=367 q=-0.0 size=N/A time=00:00:47.29 bitrate=N/A speed=15.3x    frame= 1312 fps=363 q=-0.0 size=N/A time=00:00:54.72 bitrate=N/A speed=15.1x    frame= 1525 fps=370 q=-0.0 size=N/A time=00:01:03.60 bitrate=N/A speed=15.4x    frame= 1728 fps=372 q=-0.0 size=N/A time=00:01:12.07 bitrate=N/A speed=15.5x    frame= 1913 fps=371 q=-0.0 size=N/A time=00:01:19.78 bitrate=N/A speed=15.5x    frame= 2119 fps=373 q=-0.0 size=N/A time=00:01:28.37 bitrate=N/A speed=15.6x    frame= 2329 fps=376 q=-0.0 size=N/A time=00:01:37.13 bitrate=N/A speed=15.7x    frame= 2568 fps=383 q=-0.0 size=N/A time=00:01:47.10 bitrate=N/A speed=  16x    frame= 2826 fps=391 q=-0.0 size=N/A time=00:01:57.86 bitrate=N/A speed=16.3x    frame= 3089 fps=400 q=-0.0 size=N/A time=00:02:08.83 bitrate=N/A speed=16.7x    frame= 3288 fps=398 q=-0.0 size=N/A time=00:02:17.13 bitrate=N/A speed=16.6x    frame= 3560 fps=406 q=-0.0 size=N/A time=00:02:28.48 bitrate=N/A speed=16.9x    frame= 3853 fps=415 q=-0.0 size=N/A time=00:02:40.70 bitrate=N/A speed=17.3x    frame= 4137 fps=422 q=-0.0 size=N/A time=00:02:52.54 bitrate=N/A speed=17.6x    frame= 4404 fps=427 q=-0.0 size=N/A time=00:03:03.68 bitrate=N/A speed=17.8x    frame= 4667 fps=431 q=-0.0 size=N/A time=00:03:14.65 bitrate=N/A speed=  18x    frame= 4944 fps=436 q=-0.0 size=N/A time=00:03:26.20 bitrate=N/A speed=18.2x    frame= 5243 fps=442 q=-0.0 size=N/A time=00:03:38.67 bitrate=N/A speed=18.4x    frame= 5520 fps=446 q=-0.0 size=N/A time=00:03:50.23 bitrate=N/A speed=18.6x    frame= 5797 fps=450 q=-0.0 size=N/A time=00:04:01.78 bitrate=N/A speed=18.7x    frame= 6078 fps=454 q=-0.0 size=N/A time=00:04:13.50 bitrate=N/A speed=18.9x    frame= 6345 fps=456 q=-0.0 size=N/A time=00:04:24.63 bitrate=N/A speed=  19x    frame= 6613 fps=458 q=-0.0 size=N/A time=00:04:35.81 bitrate=N/A speed=19.1x    frame= 6882 fps=460 q=-0.0 size=N/A time=00:04:47.03 bitrate=N/A speed=19.2x    frame= 7125 fps=460 q=-0.0 size=N/A time=00:04:57.17 bitrate=N/A speed=19.2x    frame= 7384 fps=461 q=-0.0 size=N/A time=00:05:07.97 bitrate=N/A speed=19.2x    frame= 7669 fps=464 q=-0.0 size=N/A time=00:05:19.86 bitrate=N/A speed=19.4x    frame= 7940 fps=466 q=-0.0 size=N/A time=00:05:31.16 bitrate=N/A speed=19.4x    frame= 8212 fps=468 q=-0.0 size=N/A time=00:05:42.50 bitrate=N/A speed=19.5x    frame= 8489 fps=470 q=-0.0 size=N/A time=00:05:54.06 bitrate=N/A speed=19.6x    frame= 8760 fps=471 q=-0.0 size=N/A time=00:06:05.36 bitrate=N/A speed=19.7x    frame= 9012 fps=472 q=-0.0 size=N/A time=00:06:15.87 bitrate=N/A speed=19.7x    frame= 9291 fps=474 q=-0.0 size=N/A time=00:06:27.51 bitrate=N/A speed=19.8x    frame= 9583 fps=476 q=-0.0 size=N/A time=00:06:39.69 bitrate=N/A speed=19.9x    frame= 9838 fps=477 q=-0.0 size=N/A time=00:06:50.32 bitrate=N/A speed=19.9x    frame=10072 fps=476 q=-0.0 size=N/A time=00:07:00.08 bitrate=N/A speed=19.9x    frame=10307 fps=475 q=-0.0 size=N/A time=00:07:09.88 bitrate=N/A speed=19.8x    frame=10578 fps=477 q=-0.0 size=N/A time=00:07:21.19 bitrate=N/A speed=19.9x    frame=10854 fps=478 q=-0.0 size=N/A time=00:07:32.70 bitrate=N/A speed=19.9x    frame=11138 fps=480 q=-0.0 size=N/A time=00:07:44.54 bitrate=N/A speed=  20x    frame=11418 fps=481 q=-0.0 size=N/A time=00:07:56.22 bitrate=N/A speed=20.1x    frame=11684 fps=482 q=-0.0 size=N/A time=00:08:07.32 bitrate=N/A speed=20.1x    frame=11938 fps=482 q=-0.0 size=N/A time=00:08:17.91 bitrate=N/A speed=20.1x    frame=12226 fps=483 q=-0.0 size=N/A time=00:08:29.92 bitrate=N/A speed=20.2x    frame=12482 fps=484 q=-0.0 size=N/A time=00:08:40.60 bitrate=N/A speed=20.2x    frame=12761 fps=485 q=-0.0 size=N/A time=00:08:52.24 bitrate=N/A speed=20.2x    frame=13053 fps=486 q=-0.0 size=N/A time=00:09:04.41 bitrate=N/A speed=20.3x    frame=13340 fps=488 q=-0.0 size=N/A time=00:09:16.38 bitrate=N/A speed=20.3x    frame=13604 fps=488 q=-0.0 size=N/A time=00:09:27.40 bitrate=N/A speed=20.4x    frame=13885 fps=489 q=-0.0 size=N/A time=00:09:39.12 bitrate=N/A speed=20.4x    frame=14160 fps=490 q=-0.0 size=N/A time=00:09:50.59 bitrate=N/A speed=20.4x    frame=14430 fps=491 q=-0.0 size=N/A time=00:10:01.85 bitrate=N/A speed=20.5x    frame=14717 fps=492 q=-0.0 size=N/A time=00:10:13.82 bitrate=N/A speed=20.5x    frame=14984 fps=492 q=-0.0 size=N/A time=00:10:24.95 bitrate=N/A speed=20.5x    frame=15250 fps=493 q=-0.0 size=N/A time=00:10:36.05 bitrate=N/A speed=20.6x    frame=15540 fps=494 q=-0.0 size=N/A time=00:10:48.14 bitrate=N/A speed=20.6x    frame=15836 fps=495 q=-0.0 size=N/A time=00:11:00.49 bitrate=N/A speed=20.6x    frame=16111 fps=496 q=-0.0 size=N/A time=00:11:11.96 bitrate=N/A speed=20.7x    frame=16407 fps=497 q=-0.0 size=N/A time=00:11:24.30 bitrate=N/A speed=20.7x    frame=16673 fps=497 q=-0.0 size=N/A time=00:11:35.40 bitrate=N/A speed=20.7x    frame=16961 fps=498 q=-0.0 size=N/A time=00:11:47.41 bitrate=N/A speed=20.8x    frame=17232 fps=499 q=-0.0 size=N/A time=00:11:58.71 bitrate=N/A speed=20.8x    frame=17497 fps=499 q=-0.0 size=N/A time=00:12:09.77 bitrate=N/A speed=20.8x    frame=17760 fps=499 q=-0.0 size=N/A time=00:12:20.74 bitrate=N/A speed=20.8x    frame=18029 fps=499 q=-0.0 size=N/A time=00:12:31.95 bitrate=N/A speed=20.8x    frame=18314 fps=500 q=-0.0 size=N/A time=00:12:43.84 bitrate=N/A speed=20.9x    frame=18585 fps=500 q=-0.0 size=N/A time=00:12:55.14 bitrate=N/A speed=20.9x    frame=18884 fps=501 q=-0.0 size=N/A time=00:13:07.62 bitrate=N/A speed=20.9x    frame=19168 fps=502 q=-0.0 size=N/A time=00:13:19.46 bitrate=N/A speed=20.9x    frame=19425 fps=502 q=-0.0 size=N/A time=00:13:30.18 bitrate=N/A speed=20.9x    frame=19703 fps=503 q=-0.0 size=N/A time=00:13:41.77 bitrate=N/A speed=  21x    frame=19991 fps=503 q=-0.0 size=N/A time=00:13:53.79 bitrate=N/A speed=  21x    frame=20277 fps=504 q=-0.0 size=N/A time=00:14:05.71 bitrate=N/A speed=  21x    frame=20458 fps=502 q=-0.0 size=N/A time=00:14:13.26 bitrate=N/A speed=20.9x    frame=20631 fps=500 q=-0.0 size=N/A time=00:14:20.48 bitrate=N/A speed=20.8x    frame=20812 fps=498 q=-0.0 size=N/A time=00:14:28.03 bitrate=N/A speed=20.8x    frame=21005 fps=496 q=-0.0 size=N/A time=00:14:36.08 bitrate=N/A speed=20.7x    frame=21210 fps=495 q=-0.0 size=N/A time=00:14:44.63 bitrate=N/A speed=20.7x    frame=21417 fps=494 q=-0.0 size=N/A time=00:14:53.26 bitrate=N/A speed=20.6x    frame=21621 fps=493 q=-0.0 size=N/A time=00:15:01.77 bitrate=N/A speed=20.6x    frame=21812 fps=491 q=-0.0 size=N/A time=00:15:09.74 bitrate=N/A speed=20.5x    frame=22026 fps=491 q=-0.0 size=N/A time=00:15:18.66 bitrate=N/A speed=20.5x    frame=22240 fps=490 q=-0.0 size=N/A time=00:15:27.59 bitrate=N/A speed=20.4x    frame=22512 fps=490 q=-0.0 size=N/A time=00:15:38.93 bitrate=N/A speed=20.4x    frame=22787 fps=491 q=-0.0 size=N/A time=00:15:50.40 bitrate=N/A speed=20.5x    frame=23088 fps=492 q=-0.0 size=N/A time=00:16:02.96 bitrate=N/A speed=20.5x    frame=23355 fps=492 q=-0.0 size=N/A time=00:16:14.09 bitrate=N/A speed=20.5x    frame=23640 fps=493 q=-0.0 size=N/A time=00:16:25.98 bitrate=N/A speed=20.5x    frame=23909 fps=493 q=-0.0 size=N/A time=00:16:37.20 bitrate=N/A speed=20.6x    frame=24168 fps=493 q=-0.0 size=N/A time=00:16:48.00 bitrate=N/A speed=20.6x    frame=24445 fps=494 q=-0.0 size=N/A time=00:16:59.56 bitrate=N/A speed=20.6x    frame=24669 fps=493 q=-0.0 size=N/A time=00:17:08.90 bitrate=N/A speed=20.6x    frame=24826 fps=491 q=-0.0 size=N/A time=00:17:15.45 bitrate=N/A speed=20.5x    frame=25042 fps=490 q=-0.0 size=N/A time=00:17:24.46 bitrate=N/A speed=20.4x    frame=25304 fps=490 q=-0.0 size=N/A time=00:17:35.42 bitrate=N/A speed=20.5x    frame=25584 fps=491 q=-0.0 size=N/A time=00:17:47.06 bitrate=N/A speed=20.5x    frame=25847 fps=491 q=-0.0 size=N/A time=00:17:58.03 bitrate=N/A speed=20.5x    frame=26130 fps=492 q=-0.0 size=N/A time=00:18:09.83 bitrate=N/A speed=20.5x    frame=26411 fps=492 q=-0.0 size=N/A time=00:18:21.55 bitrate=N/A speed=20.5x    frame=26685 fps=492 q=-0.0 size=N/A time=00:18:32.98 bitrate=N/A speed=20.5x    frame=26930 fps=492 q=-0.0 size=N/A time=00:18:43.20 bitrate=N/A speed=20.5x    frame=27147 fps=492 q=-0.0 size=N/A time=00:18:52.25 bitrate=N/A speed=20.5x    frame=27375 fps=491 q=-0.0 size=N/A time=00:19:01.76 bitrate=N/A speed=20.5x    frame=27609 fps=491 q=-0.0 size=N/A time=00:19:11.52 bitrate=N/A speed=20.5x    frame=27844 fps=491 q=-0.0 size=N/A time=00:19:21.32 bitrate=N/A speed=20.5x    frame=28072 fps=490 q=-0.0 size=N/A time=00:19:30.83 bitrate=N/A speed=20.4x    frame=28307 fps=490 q=-0.0 size=N/A time=00:19:40.63 bitrate=N/A speed=20.4x    frame=28579 fps=490 q=-0.0 size=N/A time=00:19:51.98 bitrate=N/A speed=20.4x    frame=28835 fps=490 q=-0.0 size=N/A time=00:20:02.65 bitrate=N/A speed=20.4x    frame=29122 fps=491 q=-0.0 size=N/A time=00:20:14.63 bitrate=N/A speed=20.5x    frame=29385 fps=491 q=-0.0 size=N/A time=00:20:25.59 bitrate=N/A speed=20.5x    frame=29666 fps=491 q=-0.0 size=N/A time=00:20:37.31 bitrate=N/A speed=20.5x    frame=29945 fps=492 q=-0.0 size=N/A time=00:20:48.95 bitrate=N/A speed=20.5x    frame=30221 fps=492 q=-0.0 size=N/A time=00:21:00.46 bitrate=N/A speed=20.5x    frame=30487 fps=492 q=-0.0 size=N/A time=00:21:11.56 bitrate=N/A speed=20.5x    frame=30771 fps=493 q=-0.0 size=N/A time=00:21:23.40 bitrate=N/A speed=20.6x    frame=31042 fps=493 q=-0.0 size=N/A time=00:21:34.71 bitrate=N/A speed=20.6x    frame=31292 fps=493 q=-0.0 size=N/A time=00:21:45.13 bitrate=N/A speed=20.6x    frame=31500 fps=492 q=-0.0 size=N/A time=00:21:53.81 bitrate=N/A speed=20.5x    frame=31751 fps=492 q=-0.0 size=N/A time=00:22:04.28 bitrate=N/A speed=20.5x    frame=32003 fps=492 q=-0.0 size=N/A time=00:22:14.79 bitrate=N/A speed=20.5x    frame=32234 fps=492 q=-0.0 size=N/A time=00:22:24.42 bitrate=N/A speed=20.5x    frame=32462 fps=491 q=-0.0 size=N/A time=00:22:33.93 bitrate=N/A speed=20.5x    frame=32714 fps=491 q=-0.0 size=N/A time=00:22:44.44 bitrate=N/A speed=20.5x    frame=32958 fps=491 q=-0.0 size=N/A time=00:22:54.62 bitrate=N/A speed=20.5x    frame=33209 fps=491 q=-0.0 size=N/A time=00:23:05.09 bitrate=N/A speed=20.5x    frame=33458 fps=491 q=-0.0 size=N/A time=00:23:15.47 bitrate=N/A speed=20.5x    frame=33694 fps=491 q=-0.0 size=N/A time=00:23:25.32 bitrate=N/A speed=20.5x    frame=33955 fps=491 q=-0.0 size=N/A time=00:23:36.20 bitrate=N/A speed=20.5x    frame=34161 fps=490 q=-0.0 size=N/A time=00:23:44.79 bitrate=N/A speed=20.5x    frame=34399 fps=490 q=-0.0 size=N/A time=00:23:54.72 bitrate=N/A speed=20.4x    [Parsed_psnr_10 @ 00000244b7391d40] PSNR y:49.507748 u:50.957117 v:51.642562 average:50.023684 min:42.831687 max:inf
[out#0/null @ 00000244b73446c0] video:14800KiB audio:269748KiB subtitle:0KiB other streams:0KiB global headers:0KiB muxing overhead: unknown
frame=34443 fps=490 q=-0.0 Lsize=N/A time=00:23:56.56 bitrate=N/A speed=20.4x    
